<?xml version="1.0" standalone="no"?>
<!DOCTYPE svg PUBLIC "-//W3C//DTD SVG 20010904//EN"
        "http://www.w3.org/TR/2001/REC-SVG-20010904/DTD/svg10.dtd">
<svg version="1.0" xmlns="http://www.w3.org/2000/svg"
     width="600.000000pt" height="600.000000pt" viewBox="0 0 600.000000 600.000000"
     preserveAspectRatio="xMidYMid meet">
    <g transform="translate(0.000000,600.000000) scale(0.200000,-0.200000)"
       fill="#000000" stroke="none">
        <path d="M955 2239 c-178 -14 -332 -68 -379 -132 -20 -28 -21 -41 -24 -470 -1
-243 0 -452 3 -465 9 -38 72 -98 126 -121 113 -49 195 -63 389 -68 160 -4 198
-2 285 16 129 26 230 75 230 111 0 21 -4 25 -30 24 -16 -1 -61 -14 -100 -28
-196 -76 -554 -71 -737 11 -80 36 -85 43 -90 150 l-4 91 45 -23 c101 -50 310
-81 483 -71 123 7 135 10 144 38 12 39 -8 43 -189 40 -139 -2 -189 1 -262 16
-89 19 -180 57 -202 84 -6 7 -13 56 -15 109 l-4 96 53 -28 c95 -50 185 -64
408 -64 180 0 208 3 283 24 45 13 98 34 117 47 l35 23 0 -43 c0 -52 18 -73 49
-56 20 10 21 18 21 272 l0 261 -45 43 c-90 86 -334 133 -590 113z m360 -94
c93 -20 181 -58 195 -86 25 -45 -47 -93 -190 -125 -109 -25 -398 -25 -499 -1
-292 70 -239 178 114 231 63 9 303 -3 380 -19z m-695 -195 c-19 -12 -35 3 -26
26 6 17 8 17 24 0 15 -15 15 -18 2 -26z m930 15 c0 -26 -14 -33 -25 -15 -9 14
1 40 15 40 5 0 10 -11 10 -25z m-739 -105 c128 -26 267 -34 389 -21 119 13
239 43 288 71 l32 19 0 -93 c0 -92 -1 -95 -30 -119 -34 -29 -109 -59 -195 -78
-93 -20 -362 -18 -460 5 -82 19 -175 57 -193 79 -5 6 -12 55 -14 108 l-4 96
49 -24 c27 -14 89 -33 138 -43z m-192 -187 c-15 -18 -34 -1 -25 22 5 14 9 15
21 5 12 -10 13 -16 4 -27z m931 12 c0 -16 -6 -25 -15 -25 -16 0 -19 9 -9 34 9
25 24 19 24 -9z m-923 -281 c3 -9 0 -20 -8 -25 -22 -14 -27 -11 -21 16 5 28
20 33 29 9z"/>
        <path d="M1717 1752 c-24 -26 -24 -173 -1 -196 20 -20 29 -20 49 1 14 13 16
28 10 80 l-7 63 195 0 195 0 4 -96 c4 -120 8 -124 130 -124 l88 0 0 -320 0
-320 -305 0 -304 0 6 80 c5 69 3 83 -12 100 -22 24 -29 25 -49 4 -13 -12 -16
-38 -16 -120 0 -156 -32 -144 378 -144 316 0 340 1 355 18 15 17 17 58 17 387
l0 368 -117 119 -117 118 -241 0 c-222 0 -243 -2 -258 -18z m507 -51 c10 -11
15 -25 11 -30 -9 -16 -35 -13 -35 3 0 8 -3 21 -6 30 -8 22 9 20 30 -3z m61
-101 l49 -50 -52 0 -52 0 0 50 c0 28 1 50 3 50 1 0 25 -22 52 -50z m115 -89
c0 -12 -3 -12 -12 -3 -7 7 -20 12 -30 12 -21 0 -23 11 -6 28 14 14 48 -12 48
-37z"/>
        <path d="M1827 1453 c-19 -18 -3 -53 48 -103 l56 -55 -268 -5 -268 -5 0 -30 0
-30 268 0 c147 0 267 -2 267 -5 0 -3 -25 -30 -55 -60 -59 -58 -67 -83 -34
-100 18 -10 31 -1 120 86 54 54 99 105 99 114 0 8 -42 57 -93 108 -85 85 -120
106 -140 85z m168 -173 c18 -20 18 -21 -7 -47 l-26 -25 -17 26 c-17 25 -17 27
0 46 23 25 27 25 50 0z"/>
        <path d="M2110 1345 c-6 -8 -10 -22 -8 -32 3 -16 16 -18 100 -21 90 -3 97 -1
103 18 12 39 -11 50 -100 50 -60 0 -86 -4 -95 -15z"/>
        <path d="M2112 1188 c-18 -18 -14 -46 7 -58 32 -17 157 -13 175 6 20 19 20 29
0 48 -19 20 -163 23 -182 4z"/>
        <path d="M2004 1016 c-3 -8 -4 -23 -2 -33 3 -16 16 -18 147 -18 123 0 145 2
154 17 8 12 7 21 -2 32 -19 23 -289 24 -297 2z"/>
    </g>
</svg>
