<?xml version="1.0" standalone="no"?>
<!DOCTYPE svg PUBLIC "-//W3C//DTD SVG 20010904//EN"
 "http://www.w3.org/TR/2001/REC-SVG-20010904/DTD/svg10.dtd">
<svg version="1.0" xmlns="http://www.w3.org/2000/svg"
 width="300.000000pt" height="300.000000pt" viewBox="0 0 300.000000 300.000000"
 preserveAspectRatio="xMidYMid meet">
<metadata>
Created by potrace 1.10, written by Peter Selinger 2001-2011
</metadata>
<g transform="translate(0.000000,300.000000) scale(0.100000,-0.100000)"
fill="#000000" stroke="none">
<path d="M915 2264 c-137 -19 -263 -70 -308 -124 -46 -55 -48 -78 -45 -520 3
-455 2 -445 66 -505 155 -148 670 -162 872 -24 53 36 80 74 80 113 0 26 0 26
81 26 l81 0 -22 -36 c-26 -41 -19 -71 24 -99 24 -16 27 -16 59 4 19 12 69 57
111 101 56 59 76 87 76 107 0 20 -22 48 -94 120 -105 103 -125 111 -170 67
-30 -30 -31 -39 -11 -74 29 -50 28 -50 -173 -50 -184 0 -189 -1 -210 -23 -47
-50 -17 -106 63 -114 25 -3 45 -9 45 -14 0 -15 -81 -50 -154 -66 -107 -24
-328 -21 -433 6 -93 23 -131 43 -144 78 -12 31 -12 80 0 88 5 3 49 -7 98 -21
79 -24 105 -27 254 -28 148 -1 169 1 187 17 29 26 33 63 10 92 -19 24 -24 25
-142 25 -196 0 -352 34 -397 86 -21 25 -24 93 -5 100 7 3 45 -4 82 -15 167
-50 387 -50 572 0 39 11 76 18 81 15 5 -3 9 -17 9 -32 0 -58 73 -87 115 -45
22 21 22 26 18 294 -2 198 -7 279 -16 297 -29 56 -104 100 -220 132 -53 15
-112 20 -240 23 -93 2 -183 1 -200 -1z m430 -58 c91 -25 167 -66 193 -105 21
-33 22 -41 22 -302 l0 -269 -36 0 -37 0 5 75 c5 70 -1 91 -18 64 -10 -17 -84
-45 -170 -65 -98 -23 -326 -25 -429 -5 -85 17 -169 47 -185 66 -24 29 -30 14
-30 -74 0 -81 2 -92 25 -120 53 -62 242 -105 438 -99 l118 3 -3 -30 -3 -30
-120 -3 c-184 -5 -353 27 -427 79 l-28 20 0 -94 c0 -111 11 -132 89 -166 85
-36 186 -52 331 -52 189 -1 332 33 390 91 16 16 31 20 58 18 l37 -3 -52 -52
c-43 -43 -64 -56 -130 -76 -201 -64 -498 -55 -657 18 -63 30 -78 41 -105 85
-20 34 -21 44 -21 467 l0 432 30 34 c38 43 125 83 226 102 106 20 403 14 489
-9z m523 -809 l93 -94 -92 -96 -93 -97 -23 22 -23 22 57 58 57 58 -252 0 -252
0 0 30 0 30 258 0 257 1 -63 60 c-62 58 -63 61 -46 80 9 10 20 19 23 19 4 0
48 -42 99 -93z"/>
<path d="M905 2161 c-120 -19 -226 -62 -239 -98 -17 -43 55 -88 189 -119 117
-27 361 -25 469 5 159 42 203 91 133 145 -58 44 -171 68 -347 71 -85 2 -178 0
-205 -4z m380 -46 c217 -45 202 -101 -38 -140 -202 -32 -527 10 -527 69 0 30
70 60 175 75 102 15 309 12 390 -4z"/>
<path d="M660 1868 c0 -46 6 -94 13 -108 16 -33 104 -76 197 -96 101 -21 320
-21 420 0 83 18 175 59 189 84 9 18 20 204 11 199 -100 -60 -210 -81 -420 -80
-187 0 -291 18 -367 63 -19 11 -36 20 -39 20 -2 0 -4 -37 -4 -82z m181 -22
c204 -37 452 -25 592 29 15 6 17 0 17 -48 0 -50 -3 -58 -28 -76 -125 -88 -575
-87 -686 2 -48 39 -45 143 3 117 9 -5 55 -16 102 -24z"/>
<path d="M1713 1833 c-12 -2 -36 -20 -53 -39 -29 -34 -30 -38 -30 -134 0 -95
1 -99 26 -119 34 -27 47 -26 79 2 21 18 27 35 33 87 l7 65 146 3 147 3 4 -102
c4 -96 5 -103 31 -125 25 -21 38 -24 113 -24 l84 0 0 -264 c0 -231 -2 -265
-16 -270 -9 -3 -123 -6 -254 -6 -276 0 -270 -2 -270 86 0 41 -5 59 -20 74 -27
27 -62 25 -90 -5 -20 -22 -23 -33 -22 -110 2 -109 18 -142 85 -170 26 -11 96
-14 313 -14 153 0 295 4 316 9 21 6 49 25 67 45 l31 36 0 348 0 348 -29 39
c-43 59 -214 222 -245 234 -26 10 -405 12 -453 3z m569 -151 l118 -118 0 -346
c0 -191 -3 -354 -6 -363 -16 -41 -49 -45 -358 -45 -163 0 -306 4 -320 10 -40
15 -56 58 -56 150 l0 80 36 0 35 0 -2 -81 c-1 -44 2 -84 8 -90 6 -6 124 -8
304 -7 l294 3 3 310 2 310 -115 -3 -116 -4 3 126 3 126 -195 -2 -194 -3 3 -87
3 -88 -36 0 -36 0 0 86 c0 85 9 118 39 141 11 9 80 12 241 13 l224 0 118 -118z"/>
<path d="M2170 1628 l0 -73 76 -1 76 -2 -73 74 c-41 41 -75 74 -76 74 -2 0 -3
-33 -3 -72z"/>
<path d="M2044 1426 c-48 -21 -59 -71 -24 -106 l21 -21 -21 -26 c-24 -31 -26
-61 -4 -91 14 -21 14 -22 -11 -22 -38 0 -89 -53 -80 -82 15 -50 38 -58 169
-58 115 0 124 1 144 23 27 29 28 57 2 90 -17 21 -18 27 -5 37 25 21 29 70 7
99 -19 27 -19 28 -1 52 25 33 24 65 -6 94 -21 22 -33 25 -92 25 -37 -1 -82 -7
-99 -14z m176 -58 l0 -33 -92 1 c-51 1 -92 4 -90 8 1 3 2 17 2 31 0 25 1 25
90 25 l90 0 0 -32z m0 -141 l0 -32 -90 1 c-50 0 -90 4 -90 8 0 3 0 17 0 31 0
25 1 25 90 25 l90 0 0 -33z m0 -137 l0 -30 -130 0 -130 0 0 30 0 30 130 0 130
0 0 -30z"/>
</g>
</svg>
